<svg width="354" height="231" viewBox="0 0 354 231" fill="none" xmlns="http://www.w3.org/2000/svg">
<path fill-rule="evenodd" clip-rule="evenodd" d="M274.862 5.35063C312.105 13.4747 340.934 32.7331 350.516 62.1934C360.099 91.6551 348.105 124.166 322.753 152.608C297.317 181.144 257.863 206.341 210.488 221.718C200.019 225.115 189.588 227.896 179.286 230.08C176.855 230.596 174.466 229.043 173.951 226.611C173.435 224.18 174.989 221.791 177.42 221.276C187.411 219.158 197.539 216.458 207.71 213.157C253.839 198.185 291.837 173.766 316.035 146.619C340.317 119.377 350.141 90.1365 341.957 64.9771C333.774 39.8163 308.619 21.926 272.944 14.1439C237.392 6.38877 192.283 8.94463 146.153 23.917C100.024 38.8894 62.0261 63.3077 37.8279 90.4551C13.5458 117.697 3.72231 146.938 11.9054 172.097C19.8011 196.373 43.4826 213.876 77.2064 222.074C79.6213 222.662 81.1031 225.095 80.516 227.51C79.9289 229.925 77.4952 231.407 75.0803 230.82C39.7612 222.233 12.5908 203.302 3.34673 174.881C-6.23571 145.419 5.75743 112.908 31.1095 84.4665C56.5455 55.9305 95.9997 30.7333 143.375 15.3566C190.75 -0.0200415 237.494 -2.80051 274.862 5.35063Z" fill="#F9C22E"/>
</svg>
