<svg width="135" height="93" viewBox="0 0 135 93" fill="none" xmlns="http://www.w3.org/2000/svg">
<path fill-rule="evenodd" clip-rule="evenodd" d="M100.797 0.519505C114.949 1.38312 127.468 6.57045 132.386 17.6054C137.304 28.6421 132.785 41.4122 123.957 52.5002C114.974 63.783 100.728 74.4804 83.4273 82.1775C79.5966 83.8817 75.763 85.3737 71.9614 86.655C69.6063 87.4489 67.0536 86.1832 66.2598 83.8281C65.466 81.473 66.7317 78.9203 69.0868 78.1265C72.6206 76.9354 76.1928 75.5455 79.7689 73.9545C96.0239 66.7228 109.005 56.8313 116.916 46.8945C124.982 36.7631 127.023 27.6831 124.165 21.2688C121.306 14.8526 113.183 10.2921 100.249 9.5028C87.5634 8.72869 71.5201 11.7499 55.2652 18.9816C39.0102 26.2133 26.0293 36.1048 18.1182 46.0416C10.052 56.173 8.01064 65.253 10.8691 71.6673C13.6265 77.8551 21.2659 82.3196 33.4667 83.3382C35.9433 83.5449 37.7835 85.7203 37.5767 88.1969C37.3699 90.6736 35.1946 92.5137 32.7179 92.307C19.2319 91.1811 7.39374 85.9793 2.64839 75.3307C-2.26993 64.294 2.2494 51.5239 11.0771 40.4359C20.0599 29.1531 34.3059 18.4557 51.6069 10.7586C68.9079 3.06153 86.3959 -0.3593 100.797 0.519505Z" fill="#F9C22E"/>
</svg>
