<svg width="265" height="265" viewBox="0 0 265 265" fill="none" xmlns="http://www.w3.org/2000/svg">
<path fill-rule="evenodd" clip-rule="evenodd" d="M228.443 228.259C278.697 178.024 275.835 94.3993 222.875 41.4923C169.916 -11.4133 86.2376 -14.2451 35.9859 35.9879C-14.268 86.2231 -11.4066 169.848 41.5539 222.755C47.4043 228.599 53.6274 233.832 60.1378 238.45C62.1649 239.888 64.9738 239.411 66.4117 237.384C67.8496 235.356 67.372 232.548 65.3449 231.11C59.2445 226.782 53.4074 221.875 47.9146 216.387C-1.90182 166.621 -4.02532 88.7098 42.3486 42.3531C88.7247 -4.00576 166.696 -1.90788 216.514 47.8595C266.33 97.6256 268.454 175.537 222.08 221.894C199.684 244.282 169.992 255.355 139.617 255.245C137.132 255.236 135.11 257.243 135.101 259.728C135.092 262.214 137.099 264.236 139.585 264.245C172.176 264.363 204.227 252.466 228.443 228.259Z" fill="#5448C8"/>
</svg>
