<svg width="672" height="140" viewBox="0 0 672 140" fill="none" xmlns="http://www.w3.org/2000/svg">
<path fill-rule="evenodd" clip-rule="evenodd" d="M15.7403 32.1791C11.4817 35.1967 9.95644 37.8983 9.74035 40.1021C9.52444 42.3042 10.4947 45.2445 14.0848 49.0209C17.6496 52.7708 23.3198 56.8136 31.1475 61.0238C46.7667 69.4247 69.9967 77.9791 99.2762 86.1465C157.763 102.461 239.529 116.998 330.677 125.835C350.788 127.785 370.51 129.376 389.685 130.619C392.165 130.779 394.045 132.92 393.885 135.4C393.724 137.88 391.583 139.76 389.103 139.6C369.831 138.35 350.014 136.752 329.808 134.793C238.302 125.921 155.991 111.31 96.858 94.8155C67.3276 86.5782 43.3618 77.8125 26.8843 68.9501C18.6637 64.5286 12.0603 59.9538 7.56188 55.2219C3.08872 50.5165 0.206105 45.1107 0.783305 39.2239C1.36033 33.3387 5.23666 28.5914 10.537 24.8358C15.8681 21.0583 23.2343 17.8386 32.1586 15.0796C50.0463 9.54945 75.2627 5.55248 105.837 3.14271C167.06 -1.68267 250.659 -0.207518 342.165 8.66462C433.671 17.5368 515.983 32.1477 575.115 48.6424C604.646 56.8798 628.612 65.6454 645.089 74.5079C653.31 78.9294 659.913 83.5041 664.411 88.236C668.885 92.9414 671.767 98.3472 671.19 104.234C670.633 109.912 667.001 114.533 662 118.215C656.981 121.91 650.059 125.067 641.689 127.785C624.912 133.231 601.261 137.243 572.528 139.781C570.053 140 567.869 138.17 567.65 135.695C567.431 133.219 569.261 131.035 571.736 130.816C600.206 128.301 623.079 124.364 638.909 119.225C646.842 116.649 652.744 113.854 656.664 110.967C660.602 108.069 662.024 105.482 662.233 103.356C662.449 101.154 661.479 98.2134 657.889 94.437C654.324 90.6871 648.654 86.6443 640.826 82.4341C625.207 74.0332 601.977 65.4788 572.697 57.3115C514.21 40.9969 432.445 26.46 341.297 17.6226C250.149 8.78521 167.099 7.34214 106.544 12.1149C76.2297 14.5042 51.7748 18.4353 34.8169 23.6781C26.3183 26.3055 19.9682 29.1834 15.7403 32.1791Z" fill="#D64045"/>
</svg>
