<svg width="6" height="10" viewBox="0 0 6 10" fill="none" xmlns="http://www.w3.org/2000/svg">
<path d="M3.85741 6.461H2.38841V5.668C2.38841 5.32133 2.42741 5.06567 2.50541 4.901C2.59208 4.72767 2.77408 4.50233 3.05141 4.225L4.00041 3.276C4.19975 3.05933 4.29941 2.79067 4.29941 2.47C4.29941 2.14933 4.19541 1.885 3.98741 1.677C3.77941 1.46033 3.51075 1.352 3.18141 1.352C2.85208 1.352 2.57475 1.456 2.34941 1.664C2.13275 1.86333 2.00708 2.132 1.97241 2.47H0.399414C0.486081 1.69867 0.785081 1.09633 1.29641 0.663C1.81641 0.221 2.46208 0 3.23341 0C4.00475 0 4.63308 0.212333 5.11841 0.637C5.60375 1.053 5.84641 1.638 5.84641 2.392C5.84641 2.912 5.70341 3.34533 5.41741 3.692C5.25275 3.9 5.12708 4.04733 5.04041 4.134C4.95375 4.22067 4.83675 4.33333 4.68941 4.472C4.55075 4.602 4.42941 4.719 4.32541 4.823C4.23008 4.91833 4.15208 5.00067 4.09141 5.07C3.93541 5.26067 3.85741 5.52933 3.85741 5.876V6.461ZM3.14241 9.347C2.87375 9.347 2.63975 9.256 2.44041 9.074C2.24108 8.88333 2.14141 8.658 2.14141 8.398C2.14141 8.12933 2.23675 7.89967 2.42741 7.709C2.62675 7.51833 2.86075 7.423 3.12941 7.423C3.40675 7.423 3.64508 7.51833 3.84441 7.709C4.04375 7.891 4.14341 8.11633 4.14341 8.385C4.14341 8.645 4.04375 8.87033 3.84441 9.061C3.65375 9.25167 3.41975 9.347 3.14241 9.347Z" fill="black"/>
</svg>
