<svg width="76" height="50" viewBox="0 0 76 50" fill="none" xmlns="http://www.w3.org/2000/svg">
<path d="M76 33.7571C76 36.0169 75.5291 38.1356 74.5874 40.113C73.7398 42.0904 72.5626 43.8324 71.0558 45.339C69.6431 46.7514 67.948 47.8814 65.9703 48.7288C63.9926 49.5763 61.8736 50 59.6134 50C57.3532 50 55.2342 49.5763 53.2565 48.7288C51.2788 47.8814 49.5366 46.7514 48.0297 45.339C46.6171 43.8324 45.487 42.0904 44.6394 40.113C43.7918 38.1356 43.368 36.0169 43.368 33.7571C43.368 29.9906 43.9802 26.5066 45.2045 23.3051C46.4287 20.0094 48.0768 16.9492 50.1487 14.1243C52.3147 11.2994 54.7633 8.70998 57.4944 6.35593C60.3197 4.00188 63.2392 1.88324 66.2528 0L71.4796 4.51977C69.6902 6.12053 68.0421 8.14501 66.5353 10.5932C65.0285 13.0414 64.0396 15.4896 63.5688 17.9379C67.1475 18.7853 70.114 20.7156 72.4684 23.7288C74.8228 26.6478 76 29.9906 76 33.7571ZM32.632 33.7571C32.632 36.0169 32.1611 38.1356 31.2193 40.113C30.3717 42.0904 29.1945 43.8324 27.6877 45.339C26.2751 46.7514 24.5328 47.8814 22.461 48.7288C20.4833 49.5763 18.3643 50 16.1041 50C13.8439 50 11.7249 49.5763 9.74721 48.7288C7.86369 47.8814 6.16853 46.7514 4.66171 45.339C3.24907 43.8324 2.11896 42.0904 1.27138 40.113C0.423792 38.1356 0 36.0169 0 33.7571C0 29.9906 0.612144 26.5066 1.83643 23.3051C3.06072 20.0094 4.7088 16.9492 6.78067 14.1243C8.94672 11.2994 11.3953 8.70998 14.1264 6.35593C16.9517 4.00188 19.8711 1.88324 22.8848 0L27.9703 4.51977C26.2751 6.12053 24.6741 8.14501 23.1673 10.5932C21.6605 13.0414 20.6716 15.4896 20.2007 17.9379C23.7794 18.7853 26.746 20.7156 29.1004 23.7288C31.4548 26.6478 32.632 29.9906 32.632 33.7571Z" fill="#A28FF7"/>
</svg>
