<svg width="176" height="37" viewBox="0 0 176 37" fill="none" xmlns="http://www.w3.org/2000/svg">
<path d="M98.9641 9.00963L102.396 11.6496L100.317 14.1246C101.472 15.5436 102.099 17.1936 102 18.8106C101.901 21.1536 100.878 23.2986 98.5021 24.5196C102.132 26.1036 102.132 28.8426 102.132 29.7666C102.132 34.6176 97.7431 36.9606 93.2881 36.9606C87.6121 36.9606 84.6751 34.1886 84.7741 29.4696H89.1961C89.3611 31.9776 91.0771 32.7696 93.2881 32.7696C95.4001 32.7696 97.3141 31.7796 97.3141 29.7666C97.3141 28.1826 96.2911 26.9616 93.3541 26.9616C88.0081 26.9616 84.5431 23.7936 84.5431 18.7446C84.5431 13.2336 88.8001 10.4286 93.3541 10.4286C94.5091 10.4286 96.1261 10.5606 97.1821 11.3196L98.9641 9.00963ZM152.692 0.03125L153.026 0.035527C158.052 0.169166 161.65 2.73455 163.197 6.28466L165.366 6.28452C171.027 6.28452 175.634 10.7985 175.783 16.4234L175.787 16.7056V21.3372C175.787 26.9982 171.273 31.6049 165.648 31.7545L165.366 31.7582H112.682C108.061 31.7582 104.143 28.751 102.777 24.5871C104.532 22.7365 105.094 20.9548 105.184 18.8106C105.283 17.1936 104.656 15.5436 103.501 14.1246L105.58 11.6496L104.228 10.6099C106.06 8.07418 109.005 6.39548 112.346 6.28982L112.682 6.28452L142.554 6.28453C144.25 2.87836 147.924 0.0363309 152.692 0.03125ZM7.59 10.4286C10.098 10.4286 12.111 11.0556 13.827 12.5406L11.484 15.4776C10.263 14.6526 9.108 14.3226 7.623 14.3226C6.072 14.3226 5.28 14.8836 5.28 15.6426C5.28 16.5336 6.072 17.0286 7.689 17.0616C10.857 17.1606 14.784 17.8206 14.784 22.3086C14.784 24.8496 12.837 27.7206 7.656 27.7206C5.28 27.7206 2.739 27.2256 0 24.9486L2.046 21.6486C4.059 23.2326 6.006 23.5956 7.722 23.6286C9.141 23.6616 10.197 23.1006 10.164 22.3086C10.164 21.5496 9.603 20.9556 7.392 20.8566C4.356 20.7576 0.561 19.4706 0.561 15.6426C0.561 12.0126 4.026 10.4286 7.59 10.4286ZM115.853 10.4286C112.289 10.4286 108.824 12.0126 108.824 15.6426C108.824 19.4706 112.619 20.7576 115.655 20.8566C117.866 20.9556 118.427 21.5496 118.427 22.3086C118.46 23.1006 117.404 23.6616 115.985 23.6286C114.347 23.5971 112.499 23.2649 110.583 21.8571L110.309 21.6486L108.263 24.9486C111.002 27.2256 113.543 27.7206 115.919 27.7206C121.1 27.7206 123.047 24.8496 123.047 22.3086C123.047 17.8206 119.12 17.1606 115.952 17.0616C114.335 17.0286 113.543 16.5336 113.543 15.6426C113.543 14.8836 114.335 14.3226 115.886 14.3226C117.272 14.3226 118.371 14.6101 119.504 15.3192L119.747 15.4776L122.09 12.5406C120.374 11.0556 118.361 10.4286 115.853 10.4286ZM153.125 4.53842C149.989 4.53842 146.663 6.31176 146.529 10.8201L146.525 11.1054V12.242H143.654V16.235H146.525V27.7056H151.277V16.235H155.798V12.242H151.277V11.1054C151.277 9.38942 152.267 8.59742 153.686 8.59742C154.369 8.59742 155.105 8.73107 155.799 9.11865L156.029 9.25742L157.646 5.92442C156.227 5.03342 154.973 4.53842 153.125 4.53842ZM41.5615 4.53842V27.6694H36.8425V4.53842H41.5615ZM50.0332 4.53842V12.5406C51.4522 10.7916 53.2012 10.4616 55.1482 10.4616C59.9332 10.4616 63.2662 13.6956 63.2662 18.9756C63.2662 24.0576 59.9992 27.6216 55.2142 27.6216C53.1352 27.6216 51.2872 27.3906 49.8022 25.2456V27.6694H45.2482V4.53842H50.0332ZM25.1697 10.4616C30.6147 10.4616 34.1127 14.0916 34.1127 19.0086C34.1127 24.2226 30.7137 27.6546 25.1697 27.6546C19.6257 27.6546 16.2597 24.2226 16.2597 19.0086C16.2597 14.0916 19.7577 10.4616 25.1697 10.4616ZM74.0902 10.4946C79.6342 10.4946 83.2972 13.9266 82.2412 20.6256H70.2622C70.4932 22.2096 72.0112 23.5626 74.6842 23.5626C75.9712 23.5626 77.7532 23.2986 78.9082 22.2756L81.5812 25.2456C79.8322 26.9616 77.0602 27.6546 74.5852 27.6546C68.6782 27.6546 65.4442 24.0906 65.4442 18.9096C65.4442 13.9926 68.8102 10.4946 74.0902 10.4946ZM133.433 10.4616C128.021 10.4616 124.523 14.0916 124.523 19.0086C124.523 24.2226 127.889 27.6546 133.433 27.6546C138.977 27.6546 142.376 24.2226 142.376 19.0086C142.376 14.0916 138.878 10.4616 133.433 10.4616ZM164.914 8.59742H160.195V12.242H157.291V16.235H160.195V21.1536C160.195 26.2356 162.868 27.7866 166.399 27.6216C167.569 27.5316 168.467 27.4144 169.513 27.0219L169.831 26.8956L168.742 22.9356C168.214 23.1996 167.323 23.3316 166.762 23.3316C165.907 23.3316 164.991 22.9058 164.919 21.3536L164.914 21.1536V16.2188H169.072V12.242H164.947L164.914 8.59742ZM25.1697 14.7186C22.3647 14.7186 21.0777 16.9626 21.0777 19.0086C21.0777 21.2196 22.2657 23.4306 25.1697 23.4306C28.0737 23.4306 29.2947 21.3186 29.2947 19.0086C29.2947 16.9626 28.0407 14.7186 25.1697 14.7186ZM133.433 14.7186C136.304 14.7186 137.558 16.9626 137.558 19.0086C137.558 21.3186 136.337 23.4306 133.433 23.4306C130.529 23.4306 129.341 21.2196 129.341 19.0086C129.341 16.9626 130.628 14.7186 133.433 14.7186ZM54.4882 14.7846C52.2772 14.7846 50.0992 16.2036 50.0992 18.9756C50.0992 22.0776 52.3432 23.1666 54.4882 23.1666C57.0292 23.1666 58.4812 21.3186 58.4812 18.9756C58.4812 16.5006 56.9632 14.7846 54.4882 14.7846ZM93.3541 14.6526C90.9451 14.6526 89.1301 16.1046 89.1301 18.7446C89.1301 21.1206 90.9451 22.6386 93.3541 22.6386C95.4991 22.6386 97.4461 21.3516 97.4461 18.7446C97.4461 16.4676 95.6971 14.6526 93.3541 14.6526ZM74.0902 14.5536C72.1432 14.5536 70.7572 15.5436 70.2622 17.1606H77.9842C77.8852 15.4116 76.0702 14.5536 74.0902 14.5536Z" fill="#D64045"/>
</svg>
